# xmcd CD database file
#
# Track frame offsets:
#	150
#	21955
#	42598
#	59665
#	76285
#	96793
#	117848
#	132915
#	153950
#	172890
#	193468
#	215570
#	233875
#
# Disc length: 3322 seconds
#
# Revision: 0
# Processed by: cddbd v1.5.1PL0 Copyright (c) Steve Scherf et al.
# Submitted via: CDex 1.51
#
DISCID=b60cf80d
DTITLE=細川たかし - ふたり道 Disc 1
DYEAR=1995
DGENRE=Country
TTITLE0=ふたり道
TTITLE1=恋の酒
TTITLE2=北酒場
TTITLE3=北の旅愁
TTITLE4=恋
TTITLE5=湯けむり情話
TTITLE6=女の十字路
TTITLE7=カスマプゲ
TTITLE8=夢酔い人（びと）
TTITLE9=新宿情話
TTITLE10=熱き心に
TTITLE11=ゆきずり
TTITLE12=人生希望と辛抱だ
EXTD=YEAR: 1995
EXTT0=
EXTT1=
EXTT2=
EXTT3=
EXTT4=
EXTT5=
EXTT6=
EXTT7=
EXTT8=
EXTT9=
EXTT10=
EXTT11=
EXTT12=
PLAYORDER=
